<svg xmlns="http://www.w3.org/2000/svg" width="16.843" height="19.249" viewBox="0 0 16.843 19.249">
  <path id="Icon_awesome-hand-paper" data-name="Icon awesome-hand-paper" d="M15.368,4.813a1.528,1.528,0,0,0-1.533,1.533V9.625h-.3V3A1.528,1.528,0,0,0,12,1.466a1.5,1.5,0,0,0-1.474,1.5V9.625h-.3V1.534A1.528,1.528,0,0,0,8.693,0,1.5,1.5,0,0,0,7.218,1.5V9.625h-.3V3.037A1.528,1.528,0,0,0,5.384,1.5a1.5,1.5,0,0,0-1.474,1.5V11.88L2.72,10.244A1.5,1.5,0,1,0,.288,12.013L5.01,18.506a1.8,1.8,0,0,0,1.459.743H13.9a1.8,1.8,0,0,0,1.757-1.391l1-4.236a7.219,7.219,0,0,0,.192-1.653V6.316A1.5,1.5,0,0,0,15.368,4.813Z" fill="#fff"/>
</svg>
