<svg id="Grupo_100" data-name="Grupo 100" xmlns="http://www.w3.org/2000/svg" width="19.101" height="21.737" viewBox="0 0 19.101 21.737">
  <path id="Icon_material-timer-10" data-name="Icon material-timer-10" d="M0,10.283v1.322l2.362-.787v7.557H3.936V8.929Zm10.879-.527a2.343,2.343,0,0,0-.968-.693A3.509,3.509,0,0,0,8.659,8.85a3.54,3.54,0,0,0-1.252.213,2.275,2.275,0,0,0-.968.693,3.39,3.39,0,0,0-.622,1.252,7.132,7.132,0,0,0-.22,1.881V14.4a6.817,6.817,0,0,0,.22,1.881,3.319,3.319,0,0,0,.63,1.26,2.293,2.293,0,0,0,.968.7,3.54,3.54,0,0,0,1.252.22,3.315,3.315,0,0,0,1.252-.22,2.27,2.27,0,0,0,.96-.7,3.305,3.305,0,0,0,.614-1.26,7.132,7.132,0,0,0,.22-1.881V12.888a6.817,6.817,0,0,0-.22-1.881,3.211,3.211,0,0,0-.614-1.252Zm-.724,4.857a6.554,6.554,0,0,1-.094,1.2,2.387,2.387,0,0,1-.283.8,1.2,1.2,0,0,1-.464.449,1.393,1.393,0,0,1-.646.142,1.44,1.44,0,0,1-.646-.142,1.169,1.169,0,0,1-.472-.449,2.559,2.559,0,0,1-.3-.8,5.871,5.871,0,0,1-.1-1.2V12.644a5.738,5.738,0,0,1,.1-1.2,2.35,2.35,0,0,1,.3-.787,1.181,1.181,0,0,1,.472-.433,1.514,1.514,0,0,1,.638-.134,1.463,1.463,0,0,1,.638.134,1.079,1.079,0,0,1,.472.433,2.241,2.241,0,0,1,.291.779,6.331,6.331,0,0,1,.1,1.2v1.976Z" transform="translate(7.387 -0.116)" fill="#fff"/>
  <path id="Icon_awesome-long-arrow-alt-up" data-name="Icon awesome-long-arrow-alt-up" d="M4.324,8.112a4.916,4.916,0,0,0,3.5,0H9.836a1.049,1.049,0,0,0,.742-1.792L6.815,2.557a1.049,1.049,0,0,0-1.484,0L1.568,6.32A1.049,1.049,0,0,0,2.31,8.112Z" transform="translate(-1.258 -2.25)" fill="#fff"/>
  <g id="Icon_feather-arrow-up" data-name="Icon feather-arrow-up" transform="translate(4.814 3.622)">
    <path id="Trazado_32" data-name="Trazado 32" d="M18,24.115V7.5" transform="translate(-18 -7.5)" fill="none" stroke="#fff" stroke-linecap="round" stroke-linejoin="round" stroke-width="3"/>
  </g>
</svg>
