<svg xmlns="http://www.w3.org/2000/svg" width="19.385" height="12.923" viewBox="0 0 19.385 12.923">
  <path id="Icon_awesome-eye" data-name="Icon awesome-eye" d="M19.268,10.47A10.794,10.794,0,0,0,9.692,4.5,10.8,10.8,0,0,0,.117,10.471a1.089,1.089,0,0,0,0,.982,10.794,10.794,0,0,0,9.575,5.97,10.8,10.8,0,0,0,9.575-5.971A1.089,1.089,0,0,0,19.268,10.47ZM9.692,15.808a4.846,4.846,0,1,1,4.846-4.846A4.846,4.846,0,0,1,9.692,15.808Zm0-8.077a3.208,3.208,0,0,0-.852.128A1.61,1.61,0,0,1,6.589,10.11a3.223,3.223,0,1,0,3.1-2.379Z" transform="translate(0 -4.5)" fill="#fff"/>
</svg>
