<svg xmlns="http://www.w3.org/2000/svg" width="64" height="64" viewBox="0 0 64 64">
  <g id="Grupo_3399" data-name="Grupo 3399" transform="translate(9.66 10.119)">
    <rect id="Rectángulo_48" data-name="Rectángulo 48" width="64" height="64" rx="30" transform="translate(-9.66 -10.119)" fill="none"/>
    <path id="Icon_awesome-hand-paper" data-name="Icon awesome-hand-paper" d="M26.553,8.315A2.639,2.639,0,0,0,23.9,10.964v5.665h-.52V5.183a2.639,2.639,0,0,0-2.649-2.649,2.6,2.6,0,0,0-2.547,2.6v11.5h-.52V2.65A2.639,2.639,0,0,0,15.019,0a2.6,2.6,0,0,0-2.547,2.6v14.03h-.52V5.248A2.639,2.639,0,0,0,9.3,2.6,2.6,2.6,0,0,0,6.755,5.2V20.525L4.7,17.7A2.6,2.6,0,1,0,.5,20.755L8.656,31.973a3.118,3.118,0,0,0,2.522,1.284H24.012a3.118,3.118,0,0,0,3.035-2.4l1.722-7.318a12.472,12.472,0,0,0,.332-2.856V10.913A2.6,2.6,0,0,0,26.553,8.315Z" transform="translate(7.101 5.119)" fill="#11539a"/>
  </g>
</svg>
