<svg xmlns="http://www.w3.org/2000/svg" width="64" height="64" viewBox="0 0 64 64">
  <g id="Grupo_3398" data-name="Grupo 3398" transform="translate(8.954 13.33)">
    <rect id="Rectángulo_47" data-name="Rectángulo 47" width="64" height="64" rx="30" transform="translate(-8.954 -13.33)" fill="none"/>
    <path id="Icon_awesome-eye" data-name="Icon awesome-eye" d="M33.289,14.815A18.649,18.649,0,0,0,16.746,4.5,18.652,18.652,0,0,0,.2,14.816a1.881,1.881,0,0,0,0,1.7A18.649,18.649,0,0,0,16.746,26.828,18.652,18.652,0,0,0,33.289,16.512,1.881,1.881,0,0,0,33.289,14.815ZM16.746,24.037a8.373,8.373,0,1,1,8.373-8.373A8.373,8.373,0,0,1,16.746,24.037Zm0-13.955a5.542,5.542,0,0,0-1.472.22,2.782,2.782,0,0,1-3.89,3.89,5.569,5.569,0,1,0,5.362-4.11Z" transform="translate(6.284 3.503)" fill="#1c92b0"/>
  </g>
</svg>
