<svg id="Grupo_2" data-name="Grupo 2" xmlns="http://www.w3.org/2000/svg" xmlns:xlink="http://www.w3.org/1999/xlink" width="140.683" height="67.88" viewBox="0 0 140.683 67.88">
  <defs>
    <clipPath id="clip-path">
      <rect id="Rectángulo_4" data-name="Rectángulo 4" width="140.683" height="67.88" fill="none"/>
    </clipPath>
  </defs>
  <g id="Grupo_1" data-name="Grupo 1" clip-path="url(#clip-path)">
    <path id="Trazado_1" data-name="Trazado 1" d="M144.971,38.728a15.079,15.079,0,0,0,5.551,3.318,24.89,24.89,0,0,0,14.2.224,19.442,19.442,0,0,0,4.785-2.138,5.445,5.445,0,0,0,2.807-4.785V5.1a7.289,7.289,0,0,0-.382-2.584A3.462,3.462,0,0,0,170.779.957,4.3,4.3,0,0,0,168.9.191,15.028,15.028,0,0,0,166.377,0a18.3,18.3,0,0,0-2.871.223,17.516,17.516,0,0,0-2.041.415V10.974a10.013,10.013,0,0,0-1.978-.543A13.759,13.759,0,0,0,157,10.208a20.965,20.965,0,0,0-6.539.989,14.544,14.544,0,0,0-5.3,3.031,13.953,13.953,0,0,0-3.541,5.136,19.075,19.075,0,0,0-1.276,7.306,18.763,18.763,0,0,0,1.18,6.859,14.252,14.252,0,0,0,3.446,5.2m7.815-17.96a5.184,5.184,0,0,1,8.294,0,10.125,10.125,0,0,1,1.467,5.9,10.463,10.463,0,0,1-1.435,5.934A4.681,4.681,0,0,1,157,34.708a4.865,4.865,0,0,1-4.179-2.073,10.083,10.083,0,0,1-1.5-5.966,10.118,10.118,0,0,1,1.467-5.9" transform="translate(-70.482 0)" fill="#242e7c"/>
    <path id="Trazado_2" data-name="Trazado 2" d="M66.451,43.858a14.644,14.644,0,0,0,3.413,5.2,15.015,15.015,0,0,0,5.264,3.286,19.318,19.318,0,0,0,6.827,1.148,20.349,20.349,0,0,0,6.826-1.085,14.509,14.509,0,0,0,5.264-3.19,14.291,14.291,0,0,0,3.413-5.2,19.228,19.228,0,0,0,1.212-7.05A18.241,18.241,0,0,0,97.459,30.2a14.669,14.669,0,0,0-3.413-5.2,15.426,15.426,0,0,0-5.264-3.318,18.855,18.855,0,0,0-6.826-1.18,19.318,19.318,0,0,0-6.827,1.148,15.029,15.029,0,0,0-5.264,3.286,14.658,14.658,0,0,0-3.413,5.2,18.4,18.4,0,0,0-1.213,6.827,18.581,18.581,0,0,0,1.213,6.89M77.807,31.066a5.184,5.184,0,0,1,8.295,0,10.129,10.129,0,0,1,1.467,5.9A10.459,10.459,0,0,1,86.134,42.9a4.681,4.681,0,0,1-4.116,2.105,4.865,4.865,0,0,1-4.179-2.073,10.083,10.083,0,0,1-1.5-5.966,10.121,10.121,0,0,1,1.467-5.9" transform="translate(-32.763 -10.299)" fill="#242e7c"/>
    <path id="Trazado_3" data-name="Trazado 3" d="M18.781,44.363a2.278,2.278,0,0,1,2.025-1.175,2.742,2.742,0,0,1,.661.084.385.385,0,0,0,.481-.372V15.788H29.03a3.988,3.988,0,0,0,2.9-1.085,4.827,4.827,0,0,0,1.117-3.573,8.425,8.425,0,0,0-.383-2.552,8.324,8.324,0,0,0-.83-1.914H4.019a3.99,3.99,0,0,0-2.9,1.085A4.827,4.827,0,0,0,0,11.322a8.418,8.418,0,0,0,.383,2.552,8.223,8.223,0,0,0,.829,1.914h9.571V40.543a7.772,7.772,0,0,0,.382,2.68,3.444,3.444,0,0,0,1.148,1.595,4.589,4.589,0,0,0,1.883.8,13.355,13.355,0,0,0,2.584.223q.488,0,.98-.022l.366-.032a.386.386,0,0,0,.346-.364,2.457,2.457,0,0,1,.31-1.058" transform="translate(0 -3.347)" fill="#242e7c"/>
    <path id="Trazado_4" data-name="Trazado 4" d="M247.673,30.2A14.669,14.669,0,0,0,244.26,25,15.424,15.424,0,0,0,239,21.686a18.86,18.86,0,0,0-6.827-1.18,19.312,19.312,0,0,0-6.826,1.148,15.032,15.032,0,0,0-5.264,3.286,14.664,14.664,0,0,0-3.413,5.2,18.4,18.4,0,0,0-1.212,6.827,18.581,18.581,0,0,0,1.212,6.89,14.651,14.651,0,0,0,3.413,5.2,14.081,14.081,0,0,0,1.382,1.176.381.381,0,0,0,.418.026,3.714,3.714,0,0,1,1.827-.542,2.733,2.733,0,0,1,1.374.361,2.647,2.647,0,0,1,1.271,1.709,3.085,3.085,0,0,1,.08.633.384.384,0,0,0,.278.363A21.752,21.752,0,0,0,239,52.407a14.507,14.507,0,0,0,5.264-3.19,14.291,14.291,0,0,0,3.413-5.2,19.228,19.228,0,0,0,1.213-7.05,18.241,18.241,0,0,0-1.213-6.763M235.845,48.12a4.689,4.689,0,0,1-1.381.3,16.818,16.818,0,0,1-1.943.116,5.418,5.418,0,0,1-2.9-.632q-.983-.632-.984-2.693V41.527a1.461,1.461,0,0,0-1.461-1.461h-5.61a4.635,4.635,0,0,1-.538-1.358,6.91,6.91,0,0,1-.211-1.686,3.434,3.434,0,0,1,.749-2.459,2.675,2.675,0,0,1,2.014-.773h3.65a7.551,7.551,0,0,0,1.879,5.2c1.52,1.645,3.787,2.479,6.74,2.479Zm6.93-8.826a2.615,2.615,0,0,1-1.967.773h-4.963c-7.707,0-7.212-6.275-7.212-6.275V25.925a13.109,13.109,0,0,1,1.428-.3,11.223,11.223,0,0,1,1.9-.164,5.281,5.281,0,0,1,2.88.656q1.007.656,1.007,2.762v3.456a1.461,1.461,0,0,0,1.461,1.461h5.469q.234.562.492,1.381a5.684,5.684,0,0,1,.257,1.709,3.357,3.357,0,0,1-.749,2.412" transform="translate(-108.202 -10.298)" fill="#242e7c"/>
    <path id="Trazado_5" data-name="Trazado 5" d="M42.577,83.717S56.51,98.174,89.2,98.174c0,0,29.08-.1,44.583-14.457,0,0,1.491-1.637,2.577-1.017s.194,2.52-.5,3.568S122.553,109.343,89.2,109.343,43.174,88.866,41.429,86.249c0,0-1.338-2.124-.873-2.937s1.7.1,2.021.406" transform="translate(-20.319 -41.462)" fill="#ffe500"/>
  </g>
</svg>
